# xmcd
#
# Track frame offsets:
# 150
# 13726
# 33793
# 53453
# 69055
# 87680
# 104443
# 119238
# 133818
# 156454
# 166824
# 182198
# 198948
# 213772
# 244383
# 268137
# 284824
# 302475
#
# Disc length: 4309 seconds
#
#
# Revision: 0
# Processed by: cddbd v1.5.1PL0 Copyright (c) Steve Scherf et al.
# Submitted via: FreeRIP 2.90 
#
DISCID=0b10d312
DTITLE=Almir Sater, Zeca Baleiro, Zé Geraldo - Canções do Meu Brasil
DYEAR=1900
DGENRE=MPB
TTITLE0=Tocando em Frente
TTITLE1=Telegrama
TTITLE2=Cidadão
TTITLE3=Um Violeiro Toca
TTITLE4=Lenha
TTITLE5=Senhorita
TTITLE6=Varandas
TTITLE7=Proibida pra mim
TTITLE8=Demasiadamente Urbano
TTITLE9=Chalana
TTITLE10=Bandeira
TTITLE11=Reciclagem
TTITLE12=Trem do Pantanal
TTITLE13=Vapor Barato
TTITLE14=Negro Amor
TTITLE15=Boiada
TTITLE16=Quase
TTITLE17=Talismã
EXTD=
EXTT0=
EXTT1=
EXTT2=
EXTT3=
EXTT4=
EXTT5=
EXTT6=
EXTT7=
EXTT8=
EXTT9=
EXTT10=
EXTT11=
EXTT12=
EXTT13=
EXTT14=
EXTT15=
EXTT16=
EXTT17=
PLAYORDER=
